<svg width="426" height="490" viewBox="0 0 426 490" fill="none" xmlns="http://www.w3.org/2000/svg">
<path d="M46.3907 412.765C55.0467 412.765 61.9895 415.645 67.2192 421.406C72.4488 427.078 75.0637 434.909 75.0637 444.901V488.92H52.0712V448.007C52.0712 442.966 50.7638 439.05 48.1489 436.259C45.5341 433.469 42.0176 432.074 37.5995 432.074C33.1813 432.074 29.6648 433.469 27.05 436.259C24.4351 439.05 23.1277 442.966 23.1277 448.007V488.92H0V389H23.1277V423.702C25.4721 420.371 28.673 417.716 32.7305 415.735C36.788 413.755 41.3414 412.765 46.3907 412.765Z" fill="url(#paint0_linear_702_6931)"/>
<path d="M86.5366 451.112C86.5366 443.371 87.9793 436.574 90.8646 430.723C93.8401 424.872 97.8525 420.371 102.902 417.221C107.951 414.07 113.587 412.495 119.808 412.495C125.128 412.495 129.772 413.575 133.739 415.735C137.796 417.896 140.907 420.731 143.071 424.242V413.575H166.199V488.92H143.071V478.253C140.817 481.763 137.661 484.599 133.604 486.759C129.636 488.92 124.993 490 119.673 490C113.542 490 107.951 488.425 102.902 485.274C97.8525 482.033 93.8401 477.488 90.8646 471.636C87.9793 465.695 86.5366 458.854 86.5366 451.112ZM143.071 451.247C143.071 445.486 141.448 440.94 138.202 437.61C135.046 434.279 131.169 432.614 126.571 432.614C121.972 432.614 118.05 434.279 114.804 437.61C111.648 440.85 110.07 445.351 110.07 451.112C110.07 456.873 111.648 461.464 114.804 464.885C118.05 468.216 121.972 469.881 126.571 469.881C131.169 469.881 135.046 468.216 138.202 464.885C141.448 461.554 143.071 457.008 143.071 451.247Z" fill="url(#paint1_linear_702_6931)"/>
<path d="M216.878 467.316L233.244 413.575H257.859L231.08 488.92H202.542L175.762 413.575H200.513L216.878 467.316Z" fill="url(#paint2_linear_702_6931)"/>
<path d="M338.735 450.032C338.735 452.193 338.6 454.443 338.33 456.783H285.988C286.349 461.464 287.836 465.065 290.451 467.586C293.156 470.016 296.447 471.231 300.324 471.231C306.095 471.231 310.107 468.801 312.362 463.94H336.977C335.715 468.891 333.416 473.347 330.079 477.307C326.833 481.268 322.731 484.374 317.772 486.624C312.812 488.875 307.267 490 301.136 490C293.742 490 287.16 488.425 281.389 485.274C275.619 482.123 271.11 477.623 267.864 471.771C264.618 465.92 262.995 459.079 262.995 451.247C262.995 443.416 264.573 436.574 267.729 430.723C270.975 424.872 275.483 420.371 281.254 417.221C287.025 414.07 293.652 412.495 301.136 412.495C308.439 412.495 314.931 414.025 320.612 417.086C326.292 420.146 330.711 424.512 333.866 430.183C337.112 435.854 338.735 442.471 338.735 450.032ZM315.067 443.956C315.067 439.995 313.714 436.844 311.009 434.504C308.304 432.164 304.923 430.993 300.865 430.993C296.988 430.993 293.697 432.119 290.992 434.369C288.377 436.619 286.754 439.815 286.123 443.956H315.067Z" fill="url(#paint3_linear_702_6931)"/>
<path d="M396.921 412.765C405.758 412.765 412.791 415.645 418.02 421.406C423.34 427.078 426 434.909 426 444.901V488.92H403.008V448.007C403.008 442.966 401.7 439.05 399.085 436.259C396.47 433.469 392.954 432.074 388.536 432.074C384.118 432.074 380.601 433.469 377.986 436.259C375.371 439.05 374.064 442.966 374.064 448.007V488.92H350.936V413.575H374.064V423.567C376.408 420.236 379.564 417.626 383.532 415.735C387.499 413.755 391.962 412.765 396.921 412.765Z" fill="url(#paint4_linear_702_6931)"/>
<path d="M353.153 367.605V224.927C353.153 207.806 339.274 193.927 322.153 193.927H141.29C124.169 193.927 110.29 207.806 110.29 224.927V367.605" stroke="#AFE7FF" stroke-width="30"/>
<path d="M198.561 159.095V46C198.561 28.8792 184.668 15 167.547 15V15C150.426 15 136.533 28.8792 136.533 46V159.095" stroke="#AFE7FF" stroke-width="30"/>
<path d="M326.433 83.9462L313.277 68.5974C307.999 62.4401 300.294 58.8965 292.185 58.8965V58.8965C276.842 58.8965 264.405 71.3339 264.405 86.6762V159.095" stroke="#AFE7FF" stroke-width="30"/>
<path d="M326.91 317.644C326.91 338.802 309.821 309.871 288.739 309.871C267.658 309.871 250.568 338.802 250.568 317.644C250.568 296.486 267.658 279.334 288.739 279.334C309.821 279.334 326.91 296.486 326.91 317.644Z" fill="#AFE7FF"/>
<path d="M213.352 317.644C213.352 338.802 196.262 309.871 175.181 309.871C154.1 309.871 137.01 338.802 137.01 317.644C137.01 296.486 154.1 279.334 175.181 279.334C196.262 279.334 213.352 296.486 213.352 317.644Z" fill="#AFE7FF"/>
<path d="M264.406 97.9424L321.662 148.163C332.444 157.62 348.851 156.546 358.308 145.764V145.764C367.766 134.981 366.691 118.574 355.909 109.117L298.653 58.8967" stroke="#AFE7FF" stroke-width="30"/>
<circle cx="40.6282" cy="339.453" r="28.6282" fill="#AFE7FF"/>
<defs>
<linearGradient id="paint0_linear_702_6931" x1="213" y1="389" x2="213" y2="490" gradientUnits="userSpaceOnUse">
<stop stop-color="#AFE7FF"/>
<stop offset="1" stop-color="#96DCFA"/>
</linearGradient>
<linearGradient id="paint1_linear_702_6931" x1="213" y1="389" x2="213" y2="490" gradientUnits="userSpaceOnUse">
<stop stop-color="#AFE7FF"/>
<stop offset="1" stop-color="#96DCFA"/>
</linearGradient>
<linearGradient id="paint2_linear_702_6931" x1="213" y1="389" x2="213" y2="490" gradientUnits="userSpaceOnUse">
<stop stop-color="#AFE7FF"/>
<stop offset="1" stop-color="#96DCFA"/>
</linearGradient>
<linearGradient id="paint3_linear_702_6931" x1="213" y1="389" x2="213" y2="490" gradientUnits="userSpaceOnUse">
<stop stop-color="#AFE7FF"/>
<stop offset="1" stop-color="#96DCFA"/>
</linearGradient>
<linearGradient id="paint4_linear_702_6931" x1="213" y1="389" x2="213" y2="490" gradientUnits="userSpaceOnUse">
<stop stop-color="#AFE7FF"/>
<stop offset="1" stop-color="#96DCFA"/>
</linearGradient>
</defs>
</svg>
