<svg width="379" height="68" viewBox="0 0 379 68" fill="none" xmlns="http://www.w3.org/2000/svg">
<path d="M11.747 67.5397C11.0962 67.5397 10.4562 67.518 9.82711 67.4747C9.17631 67.453 15.0008 68.7102 8.16757 67.4097C1.33433 66.1091 -2.06813 60.8451 1.33415 57.6881C3.75663 55.4402 9.14377 57.9373 9.79457 57.9807C10.4237 58.0457 11.0745 58.0782 11.747 58.0782C12.5279 58.0782 13.1679 57.9807 13.6668 57.7856C14.1875 57.6122 14.5888 57.3738 14.8708 57.0703C15.1745 56.7668 15.3915 56.4417 15.5216 56.0949C15.6518 55.7481 15.7169 55.4121 15.7169 55.087V17.9238H28.798V55.3471C28.798 56.7777 28.5919 58.2083 28.1797 59.6389C27.7675 61.0695 26.9757 62.3809 25.8043 63.573C24.6328 64.7652 22.9191 65.719 20.663 66.4343C18.4068 67.1712 15.4349 67.5397 11.747 67.5397ZM22.355 13.8595C20.4243 13.8595 18.7322 13.361 17.2788 12.3639C15.847 11.3668 15.1311 9.94705 15.1311 8.1046C15.1311 6.24048 15.847 4.82071 17.2788 3.8453C18.7322 2.84821 20.4243 2.34967 22.355 2.34967C24.2858 2.34967 25.967 2.84821 27.3988 3.8453C28.8522 4.82071 29.5789 6.24048 29.5789 8.1046C29.5789 9.94705 28.8522 11.3668 27.3988 12.3639C25.967 13.361 24.2858 13.8595 22.355 13.8595Z" fill="white"/>
<path d="M46.4215 53.1361C43.9918 53.1361 41.996 52.7568 40.4341 51.9982C38.8939 51.2395 37.6899 50.1991 36.8222 48.8768C35.9544 47.5546 35.347 46.059 34.9999 44.3899C34.6528 42.6992 34.4793 40.9326 34.4793 39.0902C34.4793 38.3315 34.4793 37.5295 34.4793 36.6842C34.4793 35.8171 34.4793 34.9284 34.4793 34.0181V17.9238H47.5929V31.8071C47.5929 32.5224 47.5929 33.1944 47.5929 33.823C47.5929 34.4516 47.5929 35.026 47.5929 35.5462C47.5929 36.7817 47.6906 37.9197 47.8858 38.9601C48.1027 39.9789 48.5366 40.8026 49.1874 41.4312C49.8382 42.0381 50.8144 42.3416 52.116 42.3416C53.4176 42.3416 54.4914 41.9948 55.3375 41.3011C56.1835 40.5858 56.8126 39.6646 57.2248 38.5375C57.6587 37.3886 57.8756 36.1748 57.8756 34.8959L60.4137 37.8222C60.4137 40.1848 60.0883 42.3091 59.4375 44.1949C58.8084 46.0807 57.8865 47.6955 56.6716 49.0394C55.4785 50.3616 54.0142 51.3804 52.2787 52.0957C50.5649 52.7893 48.6125 53.1361 46.4215 53.1361ZM57.8756 52.4533V17.9238H70.9893V52.4533H57.8756Z" fill="white"/>
<path d="M91.7336 53.2987C88.8484 53.2987 86.1584 52.6159 83.6636 51.2503C81.1906 49.8631 79.1948 47.8147 77.6762 45.1052C76.1577 42.3741 75.3984 38.9927 75.3984 34.961C75.3984 31.146 76.1794 27.9163 77.7413 25.2719C79.3033 22.6274 81.3316 20.6224 83.8263 19.2568C86.3211 17.8912 88.9568 17.2085 91.7336 17.2085C94.5103 17.2085 97.0159 17.9346 99.2503 19.3869C101.485 20.8392 103.264 22.8225 104.587 25.3369C105.91 27.8296 106.572 30.68 106.572 33.888C106.572 34.0181 106.572 34.1481 106.572 34.2782C106.572 34.3865 106.572 34.5058 106.572 34.6358H101.951C101.951 34.5708 101.951 34.5058 101.951 34.4407C101.951 34.354 101.951 34.2782 101.951 34.2131C101.951 32.7609 101.626 31.5687 100.975 30.6366C100.324 29.7046 99.4998 29.0109 98.5019 28.5557C97.5257 28.0789 96.5278 27.8404 95.5082 27.8404C93.8595 27.8404 92.3518 28.3932 90.9852 29.4986C89.6185 30.5824 88.9351 32.4032 88.9351 34.961C88.9351 37.5187 89.6185 39.372 90.9852 40.5208C92.3518 41.6696 93.8595 42.244 95.5082 42.244C96.5495 42.244 97.5583 42.0056 98.5345 41.5287C99.5323 41.0302 100.346 40.2932 100.975 39.3178C101.626 38.3424 101.951 37.1394 101.951 35.7088L106.572 36.0339C106.572 39.2203 105.91 42.1248 104.587 44.7476C103.264 47.3487 101.485 49.4296 99.2503 50.9902C97.0159 52.5292 94.5103 53.2987 91.7336 53.2987ZM101.951 52.4533C101.951 52.4533 100.975 3.03251 101.951 1.63437C104.889 -2.57273 115.097 2.67082 115.097 2.67082V52.4533H101.951Z" fill="white"/>
<path d="M125.553 67.6373C124.317 67.6373 123.221 67.5939 122.267 67.5072C121.334 67.4422 46.4215 67.4097 35.8268 67.4097C32.2178 67.4097 31.8893 58.1758 35.8268 58.1758C39.7644 58.1758 121.302 58.0132 122.039 58.0782C122.777 58.1433 123.59 58.1758 124.48 58.1758C125.347 58.1758 126.172 58.0132 126.953 57.6881C127.734 57.3629 128.417 56.8861 129.003 56.2575C129.61 55.6505 130.066 54.8919 130.369 53.9815L130.662 53.1036L118.753 17.9238H132.419L138.537 45.3003H137.105L142.93 17.9238H156.401L145.077 53.3312C144.058 56.4959 142.8 59.1403 141.303 61.2646C139.806 63.3888 137.81 64.982 135.315 66.0441C132.842 67.1062 129.588 67.6373 125.553 67.6373Z" fill="white"/>
<path d="M234.891 52.4533V40.5533C234.891 40.2065 234.891 39.6863 234.891 38.9927C234.891 38.2774 234.891 37.5621 234.891 36.8467C234.891 36.1098 234.891 35.5462 234.891 35.156C234.891 32.9668 234.566 31.2327 233.915 29.9538C233.264 28.675 231.865 28.0355 229.717 28.0355C228.329 28.0355 227.212 28.3173 226.366 28.8809C225.52 29.4445 224.901 30.2573 224.511 31.3194C224.142 32.3815 223.958 33.6604 223.958 35.156L221.42 32.5549C221.42 29.3903 222.016 26.6699 223.209 24.394C224.402 22.0963 226.073 20.3298 228.22 19.0942C230.368 17.837 232.885 17.2085 235.77 17.2085C240.043 17.2085 243.145 18.444 245.076 20.915C247.029 23.3861 248.005 26.8434 248.005 31.2869C248.005 32.3924 248.005 33.7688 248.005 35.4161C248.005 37.0418 248.005 39.036 248.005 41.3987V52.4533H234.891ZM210.844 52.4533C210.844 52.4533 210.242 2.38219 210.844 1.63437C214.055 -2.35206 223.958 3.03245 223.958 3.03245V52.4533H210.844Z" fill="white"/>
<path d="M259.46 38.7651V30.9618H279.83L278.854 32.6525C278.854 32.4791 278.854 32.2948 278.854 32.0997C278.854 31.883 278.854 31.6987 278.854 31.547C278.854 30.81 278.637 30.0514 278.203 29.271C277.791 28.469 277.108 27.7971 276.153 27.2552C275.22 26.7133 273.962 26.4424 272.378 26.4424C270.838 26.4424 269.547 26.7675 268.506 27.4178C267.465 28.068 266.684 29.0326 266.163 30.3115C265.643 31.5687 265.382 33.1077 265.382 34.9284C265.382 36.8359 265.632 38.4616 266.131 39.8055C266.63 41.1494 267.421 42.179 268.506 42.8943C269.591 43.5879 271.012 43.9347 272.769 43.9347C273.81 43.9347 274.7 43.8589 275.437 43.7071C276.175 43.5554 276.76 43.3603 277.194 43.1219C277.65 42.8835 277.986 42.6234 278.203 42.3416C278.442 42.0598 278.583 41.7888 278.626 41.5287H291.577C291.425 43.046 290.872 44.5092 289.917 45.9181C288.985 47.327 287.694 48.5951 286.045 49.7222C284.396 50.8277 282.412 51.7055 280.09 52.3558C277.769 52.9844 275.144 53.2987 272.216 53.2987C268.159 53.2987 264.645 52.5401 261.673 51.0227C258.701 49.4838 256.412 47.3595 254.807 44.65C253.201 41.9189 252.399 38.7867 252.399 35.2536C252.399 31.6337 253.223 28.469 254.872 25.7596C256.52 23.0501 258.831 20.9475 261.803 19.4519C264.797 17.9563 268.267 17.2085 272.216 17.2085C276.294 17.2085 279.808 17.9779 282.759 19.5169C285.731 21.0342 288.019 23.2018 289.625 26.0197C291.23 28.8159 292.033 32.1431 292.033 36.0014C292.033 36.6517 292.022 37.2044 292 37.6596C291.978 38.1148 291.946 38.4833 291.902 38.7651H259.46Z" fill="white"/>
<path d="M320.817 52.4533V39.0252C320.817 38.3315 320.817 37.6379 320.817 36.9443C320.817 36.2507 320.817 35.6546 320.817 35.156C320.817 33.9639 320.709 32.8259 320.492 31.7421C320.297 30.6583 319.83 29.7696 319.093 29.076C318.377 28.3823 317.227 28.0355 315.643 28.0355C314.277 28.0355 313.17 28.3173 312.324 28.8809C311.478 29.4445 310.86 30.2573 310.47 31.3194C310.079 32.3815 309.884 33.6604 309.884 35.156L307.346 32.5549C307.346 29.3903 307.986 26.6699 309.266 24.394C310.546 22.0963 312.292 20.3298 314.505 19.0942C316.717 17.837 319.212 17.2085 321.989 17.2085C324.939 17.2085 327.282 17.8154 329.017 19.0292C330.753 20.2214 332 21.8796 332.76 24.0038C333.541 26.1281 333.931 28.5557 333.931 31.2869C333.931 32.4791 333.931 33.8446 333.931 35.3836C333.931 36.9226 333.931 38.5483 333.931 40.2607V52.4533H320.817ZM296.77 52.4533V17.9238H309.884V52.4533H296.77Z" fill="white"/>
<path d="M365.138 47.0561C367.437 47.3162 369.444 47.7605 371.158 48.3891C372.872 49.0177 374.206 49.9606 375.16 51.2178C376.115 52.4533 376.592 54.1332 376.592 56.2575C376.592 58.7285 375.779 60.7985 374.152 62.4676C372.546 64.1366 370.247 65.3938 367.253 66.2392C364.281 67.0845 360.745 67.5072 356.645 67.5072C350.441 67.5072 345.56 66.6185 342.002 64.8411C338.466 63.0853 336.698 60.7444 336.698 57.8181C336.698 57.0811 336.785 56.3983 336.958 55.7697C337.132 55.1411 337.37 54.5884 337.674 54.1115L349.421 55.8023C349.356 55.889 349.28 56.0299 349.193 56.2249C349.107 56.4417 349.063 56.7343 349.063 57.1028C349.063 57.8615 349.844 58.4684 351.406 58.9236C352.968 59.3788 354.812 59.6064 356.938 59.6064C358.37 59.6064 359.649 59.498 360.778 59.2812C361.906 59.0862 362.795 58.7935 363.446 58.4034C364.097 58.0132 364.422 57.5688 364.422 57.0703C364.422 56.3767 364.032 55.8781 363.251 55.5747C362.47 55.2929 361.624 55.0978 360.712 54.9894L347.664 53.4288C345.104 53.1253 342.967 52.4208 341.253 51.3154C339.54 50.1882 338.683 48.5517 338.683 46.4058C338.683 45.0836 339.073 43.9022 339.854 42.8618C340.635 41.7997 341.514 40.9326 342.49 40.2607C343.488 39.5671 344.291 39.1227 344.898 38.9276L350.56 41.9514C350.235 41.9948 349.877 42.179 349.486 42.5041C349.117 42.8076 348.933 43.1761 348.933 43.6096C348.933 44.0865 349.226 44.5092 349.812 44.8776C350.419 45.2461 351.482 45.5171 353 45.6905L365.138 47.0561ZM367.644 17.9238H379L374.412 30.9943C373.544 33.487 372.416 35.6871 371.028 37.5946C369.639 39.502 367.828 40.9977 365.593 42.0815C363.359 43.1436 360.496 43.6746 357.003 43.6746C353.337 43.6746 350.137 43.1761 347.404 42.179C344.67 41.1602 342.555 39.6863 341.058 37.7571C339.561 35.8063 338.813 33.4545 338.813 30.7017C338.813 27.9271 339.561 25.532 341.058 23.5161C342.577 21.5003 344.627 19.9504 347.208 18.8667C349.79 17.7612 352.686 17.2085 355.897 17.2085C358.066 17.2085 360.116 17.5444 362.047 18.2164C363.999 18.8667 365.583 19.777 366.797 20.9475C368.034 22.118 368.652 23.4944 368.652 25.0768L366.96 25.7921L367.644 17.9238ZM356.938 34.6358C357.936 34.6358 358.825 34.4841 359.606 34.1806C360.409 33.8555 361.038 33.3895 361.493 32.7825C361.971 32.1756 362.209 31.4386 362.209 30.5716C362.209 29.6829 361.971 28.9459 361.493 28.3607C361.038 27.7537 360.409 27.2985 359.606 26.9951C358.825 26.6916 357.936 26.5399 356.938 26.5399C355.962 26.5399 355.072 26.6916 354.27 26.9951C353.467 27.2985 352.827 27.7537 352.35 28.3607C351.872 28.9676 351.634 29.7262 351.634 30.6366C351.634 31.5037 351.872 32.2406 352.35 32.8476C352.827 33.4328 353.467 33.8772 354.27 34.1806C355.072 34.4841 355.962 34.6358 356.938 34.6358Z" fill="white"/>
<path d="M330.64 57.8181C324.356 57.8181 185.511 57.6881 185.511 57.6881L205.463 27.1251V17.9238H175.006V27.6779H191.11L191.438 27.1577L191.796 27.6779H191.11L171.844 58.1758V67.5072C171.844 67.5072 268.626 67.5072 330.64 67.5072C331.909 67.5072 331.909 57.8181 330.64 57.8181Z" fill="white"/>
</svg>
