<svg width="61" height="56" viewBox="0 0 61 56" fill="none" xmlns="http://www.w3.org/2000/svg">
<path d="M10.85 33.15V21.15H42.15L40.65 23.75C40.65 23.4834 40.65 23.2 40.65 22.9C40.65 22.5667 40.65 22.2834 40.65 22.05C40.65 20.9167 40.3167 19.75 39.65 18.55C39.0167 17.3167 37.9667 16.2834 36.5 15.45C35.0667 14.6167 33.1333 14.2 30.7 14.2C28.3333 14.2 26.35 14.7 24.75 15.7C23.15 16.7 21.95 18.1834 21.15 20.15C20.35 22.0834 19.95 24.45 19.95 27.25C19.95 30.1834 20.3333 32.6833 21.1 34.7499C21.8667 36.8166 23.0833 38.4 24.75 39.5C26.4167 40.5666 28.6 41.0999 31.3 41.0999C32.9 41.0999 34.2667 40.9833 35.4 40.7499C36.5333 40.5166 37.4333 40.2166 38.1 39.8499C38.8 39.4833 39.3167 39.0833 39.65 38.6499C40.0167 38.2166 40.2333 37.7999 40.3 37.3999H60.1999C59.9665 39.7333 59.1165 41.9833 57.6499 44.1499C56.2165 46.3166 54.2333 48.2666 51.7 49.9999C49.1667 51.6999 46.1167 53.0499 42.55 54.0499C38.9833 55.0166 34.95 55.4999 30.45 55.4999C24.2167 55.4999 18.8167 54.3333 14.25 51.9999C9.68333 49.6333 6.16666 46.3666 3.7 42.1999C1.23333 37.9999 0 33.1834 0 27.75C0 22.1834 1.26667 17.3167 3.8 13.15C6.33334 8.98336 9.88334 5.75002 14.45 3.45002C19.05 1.15002 24.3833 0 30.45 0C36.7167 0 42.1167 1.18335 46.65 3.55002C51.2167 5.88336 54.7332 9.21669 57.1999 13.55C59.6665 17.85 60.8999 22.9667 60.8999 28.9C60.8999 29.9 60.8832 30.75 60.8499 31.45C60.8165 32.15 60.7665 32.7166 60.6999 33.15H10.85Z" fill="#F2FFFC"/>
</svg>
