<svg width="61" height="56" viewBox="0 0 61 56" fill="none" xmlns="http://www.w3.org/2000/svg">
<path d="M30.3 55.4499C24.3 55.4499 19.0167 54.2833 14.45 51.9499C9.91666 49.6166 6.36667 46.3666 3.8 42.1999C1.26667 38.0333 0 33.2 0 27.7C0 22.2 1.26667 17.3667 3.8 13.2C6.36667 9.03336 9.91666 5.80002 14.45 3.50002C19.0167 1.16669 24.3 0 30.3 0C36.3 0 41.5665 1.16669 46.0999 3.50002C50.6665 5.80002 54.2158 9.03336 56.7491 13.2C59.3158 17.3667 60.5991 22.2 60.5991 27.7C60.5991 33.2 59.3158 38.0333 56.7491 42.1999C54.2158 46.3666 50.6665 49.6166 46.0999 51.9499C41.5665 54.2833 36.3 55.4499 30.3 55.4499ZM30.3 40.1999C32.3667 40.1999 34.1333 39.6833 35.6 38.6499C37.0667 37.6166 38.1833 36.1666 38.95 34.2999C39.75 32.4333 40.15 30.2334 40.15 27.7C40.15 25.1667 39.75 22.9834 38.95 21.15C38.1833 19.2834 37.0667 17.85 35.6 16.85C34.1333 15.8167 32.3667 15.3 30.3 15.3C28.2667 15.3 26.5 15.8167 25 16.85C23.5333 17.85 22.4 19.2834 21.6 21.15C20.8333 22.9834 20.45 25.1667 20.45 27.7C20.45 30.2334 20.8333 32.4333 21.6 34.2999C22.4 36.1666 23.5333 37.6166 25 38.6499C26.5 39.6833 28.2667 40.1999 30.3 40.1999Z" fill="#F2FFFC"/>
</svg>
