<svg width="67" height="94" viewBox="0 0 67 94" fill="none" xmlns="http://www.w3.org/2000/svg">
<path d="M64.6203 14.5349C64.6203 14.5349 69.6694 79.7849 64.6203 88.2849C60.5915 95.0672 41.6628 95.6759 44.4201 88.2849C48.1694 78.2349 44.4201 54.1849 44.4201 54.1849L53.5201 59.1349H12.7702C12.7702 59.1349 21.7245 51.0852 22.5 55C29.4335 90 26 89.5 21.8701 88.2849C14.3024 86.0582 1.67017 88.2849 1.67017 88.2849C1.67017 88.2849 -2.08772 17.8224 1.67017 2.78488C3.66938 -5.21515 24.0922 5.68346 21.8701 14.5349C18.6694 27.2849 23.6203 52.7849 21.8701 48.8349C20.2462 45.1698 12.7702 44.0849 12.7702 44.0849H53.5201L44.4201 48.7849V14.5349H64.6203Z" fill="#F2FFFC"/>
</svg>
