<svg width="1920" height="1080" viewBox="0 0 1920 1080" fill="none" xmlns="http://www.w3.org/2000/svg">
<g clip-path="url(#clip0_86_9851)">
<rect width="1920" height="1080" fill="url(#paint0_linear_86_9851)"/>
<g clip-path="url(#clip1_86_9851)">
<path opacity="0.808" d="M1397.98 -407.125C1397.98 -407.125 1564.77 -363.408 1606.33 -194.303C1647.89 -25.1982 1523.17 66.9128 1564.24 269.204C1605.31 471.495 1760.09 410.951 1770.6 614.848C1781.11 818.746 1606.33 1084.8 1606.33 1084.8" stroke="url(#paint1_linear_86_9851)" stroke-width="2"/>
<path opacity="0.808" d="M636.904 -529.471C636.904 -529.471 861.347 -470.636 917.278 -243.115C973.208 -15.5934 805.38 108.386 860.64 380.614C915.9 652.841 1124.17 571.358 1138.33 845.741C1152.5 1120.12 917.281 1478.15 917.281 1478.15" stroke="url(#paint2_linear_86_9851)" stroke-width="2"/>
<path opacity="0.808" d="M-54.2574 -219.409C-54.2574 -219.409 170.185 -160.574 226.116 66.9472C282.047 294.468 114.218 418.448 169.478 690.675C224.738 962.903 433.011 881.419 447.172 1155.8C461.334 1430.19 226.119 1788.21 226.119 1788.21" stroke="url(#paint3_linear_86_9851)" stroke-width="2"/>
<path opacity="0.808" d="M1549.38 -500.472C1549.38 -500.472 1716.17 -456.754 1757.73 -287.65C1799.29 -118.545 1674.58 -26.4338 1715.64 175.857C1756.71 378.149 1911.5 317.604 1922.01 521.502C1932.51 725.4 1757.73 991.455 1757.73 991.455" stroke="url(#paint4_linear_86_9851)" stroke-width="2"/>
<path opacity="0.808" d="M840.65 -655.084C840.65 -655.084 1065.09 -596.249 1121.02 -368.728C1176.95 -141.207 1009.13 -17.2273 1064.39 255C1119.65 527.228 1327.92 445.744 1342.08 720.127C1356.24 994.51 1121.03 1352.54 1121.03 1352.54" stroke="url(#paint5_linear_86_9851)" stroke-width="2"/>
<path opacity="0.808" d="M149.488 -345.016C149.488 -345.016 373.931 -286.181 429.862 -58.6597C485.793 168.861 317.964 292.841 373.224 565.069C428.484 837.296 636.757 755.812 650.918 1030.2C665.079 1304.58 429.865 1662.61 429.865 1662.61" stroke="url(#paint6_linear_86_9851)" stroke-width="2"/>
<path opacity="0.808" d="M1689.92 -577.452C1689.92 -577.452 1856.71 -533.734 1898.27 -364.629C1939.83 -195.525 1815.12 -103.414 1856.18 98.8777C1897.25 301.169 2052.03 240.624 2062.54 444.522C2073.05 648.42 1898.27 914.475 1898.27 914.475" stroke="url(#paint7_linear_86_9851)" stroke-width="2"/>
<path opacity="0.808" d="M1076.69 -613.13C1076.69 -613.13 1301.13 -554.295 1357.06 -326.774C1412.99 -99.2531 1245.16 24.7265 1300.42 296.954C1355.68 569.182 1563.96 487.698 1578.12 762.081C1592.28 1036.46 1357.07 1394.49 1357.07 1394.49" stroke="url(#paint8_linear_86_9851)" stroke-width="2"/>
<path opacity="0.808" d="M338.605 -448.612C338.605 -448.612 563.048 -389.777 618.979 -162.256C674.909 65.2652 507.081 189.245 562.341 461.472C617.601 733.7 825.874 652.216 840.035 926.599C854.196 1200.98 618.982 1559.01 618.982 1559.01" stroke="url(#paint9_linear_86_9851)" stroke-width="2"/>
<path opacity="0.808" d="M1369.8 -585.622C1369.8 -585.622 1494.5 -363.38 1536.06 -194.303C1577.62 -25.2257 1452.9 66.9128 1493.97 269.204C1535.03 471.495 1689.82 410.951 1700.33 614.848C1710.84 818.746 1536.06 1084.8 1536.06 1084.8" stroke="url(#paint10_linear_86_9851)" stroke-width="2"/>
<path opacity="0.808" d="M542.348 -459.686C542.348 -459.686 766.79 -400.851 822.721 -173.33C878.652 54.1915 710.823 178.171 766.083 450.399C821.343 722.626 1029.62 641.142 1043.78 915.526C1057.94 1189.91 822.724 1547.94 822.724 1547.94" stroke="url(#paint11_linear_86_9851)" stroke-width="2"/>
<path opacity="0.808" d="M-148.814 -149.624C-148.814 -149.624 75.6286 -90.7889 131.559 136.732C187.49 364.253 19.6614 488.233 74.9215 760.46C130.182 1032.69 338.455 951.204 352.616 1225.59C366.777 1499.97 131.563 1858 131.563 1858" stroke="url(#paint12_linear_86_9851)" stroke-width="2"/>
<path opacity="0.808" d="M1479.11 -448.612C1479.11 -448.612 1645.9 -404.894 1687.46 -235.789C1729.02 -66.6848 1604.31 25.4263 1645.38 227.718C1686.44 430.009 1841.23 369.464 1851.74 573.362C1862.25 777.26 1687.46 1043.32 1687.46 1043.32" stroke="url(#paint13_linear_86_9851)" stroke-width="2"/>
<path opacity="0.808" d="M746.087 -585.299C746.087 -585.299 970.53 -526.464 1026.46 -298.943C1082.39 -71.4218 914.562 52.5578 969.823 324.785C1025.08 597.013 1233.36 515.529 1247.52 789.912C1261.68 1064.3 1026.46 1422.32 1026.46 1422.32" stroke="url(#paint14_linear_86_9851)" stroke-width="2"/>
<path opacity="0.808" d="M700.022 -525.599C700.022 -525.599 924.465 -466.763 980.395 -239.242C1036.33 -11.7214 868.497 112.258 923.757 384.486C979.018 656.713 1187.29 575.23 1201.45 849.613C1215.61 1124 980.399 1482.03 980.399 1482.03" stroke="url(#paint15_linear_86_9851)" stroke-width="2"/>
<path opacity="0.808" d="M589.628 -525.599C589.628 -525.599 814.07 -466.763 870.001 -239.242C925.932 -11.7214 758.103 112.258 813.363 384.486C868.623 656.713 1076.9 575.23 1091.06 849.613C1105.22 1124 870.004 1482.03 870.004 1482.03" stroke="url(#paint16_linear_86_9851)" stroke-width="2"/>
<path opacity="0.808" d="M793.367 -585.649C793.367 -585.649 1017.81 -526.814 1073.74 -299.293C1129.67 -71.7719 961.842 52.2077 1017.1 324.435C1072.36 596.663 1280.64 515.179 1294.8 789.562C1308.96 1063.95 1073.74 1421.97 1073.74 1421.97" stroke="url(#paint17_linear_86_9851)" stroke-width="2"/>
<path opacity="0.808" d="M876.355 -706.478C876.355 -706.478 1100.8 -647.642 1156.73 -420.121C1212.66 -192.6 1044.83 -68.6206 1100.09 203.607C1155.35 475.834 1363.62 394.351 1377.78 668.734C1391.95 943.117 1156.73 1301.15 1156.73 1301.15" stroke="url(#paint18_linear_86_9851)" stroke-width="2"/>
<path opacity="0.808" d="M1266.55 -583.013C1266.55 -583.013 1404.78 -453.26 1446.34 -284.176C1487.9 -115.092 1371.77 118.739 1412.84 321.023C1453.9 523.308 1608.69 462.77 1619.2 666.667C1629.71 870.565 1454.92 1136.62 1454.92 1136.62" stroke="url(#paint19_linear_86_9851)" stroke-width="2"/>
<path opacity="0.808" d="M433.162 -459.686C433.162 -459.686 657.604 -400.851 713.535 -173.33C769.466 54.1915 601.637 178.171 656.897 450.399C712.158 722.626 920.43 641.142 934.592 915.526C948.753 1189.91 713.538 1547.94 713.538 1547.94" stroke="url(#paint20_linear_86_9851)" stroke-width="2"/>
<path opacity="0.808" d="M-258 -149.624C-258 -149.624 -33.5572 -90.7889 22.3735 136.732C78.3042 364.253 -89.5244 488.233 -34.2643 760.46C20.9958 1032.69 229.269 951.204 243.43 1225.59C257.591 1499.97 22.3767 1858 22.3767 1858" stroke="url(#paint21_linear_86_9851)" stroke-width="2"/>
<path opacity="0.808" d="M1619.65 -525.599C1619.65 -525.599 1786.44 -481.881 1828 -312.776C1869.56 -143.671 1744.85 -51.5603 1785.91 150.731C1826.98 353.022 1981.76 292.477 1992.27 496.375C2002.78 700.273 1828 966.328 1828 966.328" stroke="url(#paint22_linear_86_9851)" stroke-width="2"/>
<path opacity="0.808" d="M935.21 -688.895C935.21 -688.895 1159.65 -630.06 1215.58 -402.539C1271.51 -175.018 1103.69 -51.0384 1158.95 221.189C1214.21 493.417 1422.48 411.933 1436.64 686.316C1450.8 960.699 1215.59 1318.73 1215.59 1318.73" stroke="url(#paint23_linear_86_9851)" stroke-width="2"/>
<path opacity="0.808" d="M244.048 -378.827C244.048 -378.827 468.491 -319.992 524.422 -92.4705C580.353 135.051 412.524 259.03 467.784 531.258C523.044 803.485 731.317 722.002 745.478 996.385C759.639 1270.77 524.425 1628.8 524.425 1628.8" stroke="url(#paint24_linear_86_9851)" stroke-width="2"/>
<path opacity="0.808" d="M1138.95 -613.13C1138.95 -613.13 1363.39 -554.295 1419.32 -326.774C1475.25 -99.2531 1307.43 24.7265 1362.69 296.954C1417.95 569.182 1626.22 487.698 1640.38 762.081C1654.54 1036.46 1419.33 1394.49 1419.33 1394.49" stroke="url(#paint25_linear_86_9851)" stroke-width="2"/>
<path opacity="0.808" d="M990.55 -706.478C990.55 -706.478 1214.99 -647.642 1270.92 -420.121C1326.85 -192.6 1159.03 -68.6206 1214.29 203.607C1269.55 475.834 1477.82 394.351 1491.98 668.734C1506.14 943.117 1270.93 1301.15 1270.93 1301.15" stroke="url(#paint26_linear_86_9851)" stroke-width="2"/>
<path opacity="0.808" d="M495.071 -448.612C495.071 -448.612 719.514 -389.777 775.444 -162.256C831.375 65.2652 663.546 189.245 718.807 461.472C774.067 733.7 982.34 652.216 996.501 926.599C1010.66 1200.98 775.448 1559.01 775.448 1559.01" stroke="url(#paint27_linear_86_9851)" stroke-width="2"/>
<path opacity="0.808" d="M291.325 -459.686C291.325 -459.686 515.768 -400.851 571.699 -173.33C627.629 54.1915 459.801 178.171 515.061 450.399C570.321 722.626 778.594 641.142 792.755 915.526C806.916 1189.91 571.702 1547.94 571.702 1547.94" stroke="url(#paint28_linear_86_9851)" stroke-width="2"/>
<path opacity="0.808" d="M196.768 -407.125C196.768 -407.125 421.211 -348.29 477.142 -120.769C533.073 106.752 365.244 230.731 420.504 502.959C475.764 775.186 684.037 693.703 698.198 968.086C712.359 1242.47 477.145 1600.5 477.145 1600.5" stroke="url(#paint29_linear_86_9851)" stroke-width="2"/>
<path opacity="0.808" d="M87.5825 -407.125C87.5825 -407.125 312.025 -348.29 367.956 -120.769C423.887 106.752 256.058 230.731 311.318 502.959C366.578 775.186 574.851 693.703 589.012 968.086C603.173 1242.47 367.959 1600.5 367.959 1600.5" stroke="url(#paint30_linear_86_9851)" stroke-width="2"/>
<path opacity="0.808" d="M4.59436 -256.09C4.59436 -256.09 229.037 -197.255 284.968 30.2664C340.899 257.787 173.07 381.767 228.33 653.995C283.59 926.222 491.863 844.738 506.024 1119.12C520.185 1393.5 284.971 1751.53 284.971 1751.53" stroke="url(#paint31_linear_86_9851)" stroke-width="2"/>
</g>
<path d="M663.288 542.126H629.803V693.534H567.566V542.126H545V490.443H567.566V484.62C567.566 459.627 574.724 440.701 589.039 427.841C603.355 414.739 624.344 408.187 652.005 408.187C656.615 408.187 660.012 408.309 662.196 408.551V461.326C650.307 460.598 641.935 462.297 637.083 466.421C632.23 470.546 629.803 477.947 629.803 488.623V490.443H663.288V542.126Z" fill="white"/>
<path d="M723.834 469.333C712.915 469.333 703.937 466.179 696.9 459.87C690.106 453.319 686.709 445.312 686.709 435.849C686.709 426.143 690.106 418.136 696.9 411.827C703.937 405.276 712.915 402 723.834 402C734.51 402 743.245 405.276 750.039 411.827C757.076 418.136 760.594 426.143 760.594 435.849C760.594 445.312 757.076 453.319 750.039 459.87C743.245 466.179 734.51 469.333 723.834 469.333ZM754.771 490.443V693.534H692.533V490.443H754.771Z" fill="white"/>
<path d="M923.621 488.259C947.4 488.259 966.326 496.024 980.399 511.553C994.715 526.839 1001.87 547.949 1001.87 574.882V693.534L939.999 761.777V583.253C939.999 569.666 936.481 559.111 929.444 551.589C922.408 544.067 912.945 540.306 901.055 540.306C889.166 540.306 879.703 544.067 872.666 551.589C865.629 559.111 862.111 569.666 862.111 583.253V693.534H799.873V490.443H862.111V517.376C868.42 508.398 876.912 501.362 887.588 496.266C898.265 490.928 910.275 488.259 923.621 488.259Z" fill="white"/>
<path d="M1147.03 542.126H1113.55V693.534H1051.31V542.126H1028.74V490.443H1051.31V484.62C1051.31 459.627 1058.47 440.701 1072.78 427.841C1087.1 414.739 1108.09 408.187 1135.75 408.187C1140.36 408.187 1143.76 408.309 1145.94 408.551V461.326C1134.05 460.598 1125.68 462.297 1120.83 466.421C1115.97 470.546 1113.55 477.947 1113.55 488.623V490.443H1147.03V542.126Z" fill="white"/>
<path d="M1268.72 696.446C1248.83 696.446 1230.87 692.2 1214.86 683.707C1199.08 675.215 1186.59 663.083 1177.37 647.311C1168.39 631.539 1163.9 613.098 1163.9 591.989C1163.9 571.121 1168.51 552.802 1177.73 537.03C1186.95 521.016 1199.57 508.762 1215.58 500.27C1231.6 491.777 1249.55 487.531 1269.45 487.531C1289.35 487.531 1307.3 491.777 1323.32 500.27C1339.33 508.762 1351.95 521.016 1361.17 537.03C1370.39 552.802 1375 571.121 1375 591.989C1375 612.856 1370.27 631.297 1360.81 647.311C1351.59 663.083 1338.85 675.215 1322.59 683.707C1306.58 692.2 1288.62 696.446 1268.72 696.446ZM1268.72 642.579C1280.61 642.579 1290.68 638.212 1298.93 629.477C1307.42 620.742 1311.67 608.246 1311.67 591.989C1311.67 575.732 1307.55 563.236 1299.3 554.5C1291.29 545.765 1281.34 541.398 1269.45 541.398C1257.32 541.398 1247.25 545.765 1239.24 554.5C1231.23 562.993 1227.23 575.489 1227.23 591.989C1227.23 608.246 1231.11 620.742 1238.88 629.477C1246.89 638.212 1256.83 642.579 1268.72 642.579Z" fill="white"/>
</g>
<defs>
<linearGradient id="paint0_linear_86_9851" x1="19.2713" y1="-6.98468" x2="-521.629" y2="1806.6" gradientUnits="userSpaceOnUse">
<stop stop-color="#FF5E43"/>
<stop offset="1" stop-color="#F8A036"/>
</linearGradient>
<linearGradient id="paint1_linear_86_9851" x1="1401.72" y1="-416.774" x2="349.168" y2="79.6378" gradientUnits="userSpaceOnUse">
<stop stop-color="#F8A036"/>
<stop offset="1" stop-color="#FF5E43"/>
</linearGradient>
<linearGradient id="paint2_linear_86_9851" x1="641.943" y1="-542.455" x2="-774.45" y2="125.564" gradientUnits="userSpaceOnUse">
<stop stop-color="#F8A036"/>
<stop offset="1" stop-color="#FF5E43"/>
</linearGradient>
<linearGradient id="paint3_linear_86_9851" x1="-49.2183" y1="-232.393" x2="-1465.61" y2="435.625" gradientUnits="userSpaceOnUse">
<stop stop-color="#F8A036"/>
<stop offset="1" stop-color="#FF5E43"/>
</linearGradient>
<linearGradient id="paint4_linear_86_9851" x1="1553.13" y1="-510.121" x2="500.572" y2="-13.7092" gradientUnits="userSpaceOnUse">
<stop stop-color="#F8A036"/>
<stop offset="1" stop-color="#FF5E43"/>
</linearGradient>
<linearGradient id="paint5_linear_86_9851" x1="845.689" y1="-668.068" x2="-570.704" y2="-0.0500253" gradientUnits="userSpaceOnUse">
<stop stop-color="#F8A036"/>
<stop offset="1" stop-color="#FF5E43"/>
</linearGradient>
<linearGradient id="paint6_linear_86_9851" x1="154.527" y1="-358" x2="-1261.87" y2="310.018" gradientUnits="userSpaceOnUse">
<stop stop-color="#F8A036"/>
<stop offset="1" stop-color="#FF5E43"/>
</linearGradient>
<linearGradient id="paint7_linear_86_9851" x1="1693.67" y1="-587.101" x2="641.111" y2="-90.689" gradientUnits="userSpaceOnUse">
<stop stop-color="#F8A036"/>
<stop offset="1" stop-color="#FF5E43"/>
</linearGradient>
<linearGradient id="paint8_linear_86_9851" x1="1081.73" y1="-626.114" x2="-334.666" y2="41.9038" gradientUnits="userSpaceOnUse">
<stop stop-color="#F8A036"/>
<stop offset="1" stop-color="#FF5E43"/>
</linearGradient>
<linearGradient id="paint9_linear_86_9851" x1="343.644" y1="-461.596" x2="-1072.75" y2="206.422" gradientUnits="userSpaceOnUse">
<stop stop-color="#F8A036"/>
<stop offset="1" stop-color="#FF5E43"/>
</linearGradient>
<linearGradient id="paint10_linear_86_9851" x1="1373.12" y1="-596.425" x2="371.495" y2="-222.113" gradientUnits="userSpaceOnUse">
<stop stop-color="#F8A036"/>
<stop offset="1" stop-color="#FF5E43"/>
</linearGradient>
<linearGradient id="paint11_linear_86_9851" x1="547.387" y1="-472.67" x2="-869.006" y2="195.348" gradientUnits="userSpaceOnUse">
<stop stop-color="#F8A036"/>
<stop offset="1" stop-color="#FF5E43"/>
</linearGradient>
<linearGradient id="paint12_linear_86_9851" x1="-143.775" y1="-162.608" x2="-1560.17" y2="505.41" gradientUnits="userSpaceOnUse">
<stop stop-color="#F8A036"/>
<stop offset="1" stop-color="#FF5E43"/>
</linearGradient>
<linearGradient id="paint13_linear_86_9851" x1="1482.86" y1="-458.261" x2="430.304" y2="38.1512" gradientUnits="userSpaceOnUse">
<stop stop-color="#F8A036"/>
<stop offset="1" stop-color="#FF5E43"/>
</linearGradient>
<linearGradient id="paint14_linear_86_9851" x1="751.126" y1="-598.283" x2="-665.267" y2="69.7351" gradientUnits="userSpaceOnUse">
<stop stop-color="#F8A036"/>
<stop offset="1" stop-color="#FF5E43"/>
</linearGradient>
<linearGradient id="paint15_linear_86_9851" x1="705.061" y1="-538.583" x2="-711.332" y2="129.436" gradientUnits="userSpaceOnUse">
<stop stop-color="#F8A036"/>
<stop offset="1" stop-color="#FF5E43"/>
</linearGradient>
<linearGradient id="paint16_linear_86_9851" x1="594.667" y1="-538.583" x2="-821.726" y2="129.436" gradientUnits="userSpaceOnUse">
<stop stop-color="#F8A036"/>
<stop offset="1" stop-color="#FF5E43"/>
</linearGradient>
<linearGradient id="paint17_linear_86_9851" x1="798.406" y1="-598.633" x2="-617.987" y2="69.385" gradientUnits="userSpaceOnUse">
<stop stop-color="#F8A036"/>
<stop offset="1" stop-color="#FF5E43"/>
</linearGradient>
<linearGradient id="paint18_linear_86_9851" x1="881.394" y1="-719.461" x2="-534.999" y2="-51.4433" gradientUnits="userSpaceOnUse">
<stop stop-color="#F8A036"/>
<stop offset="1" stop-color="#FF5E43"/>
</linearGradient>
<linearGradient id="paint19_linear_86_9851" x1="1270.09" y1="-594.134" x2="211.123" y2="-184.029" gradientUnits="userSpaceOnUse">
<stop stop-color="#F8A036"/>
<stop offset="1" stop-color="#FF5E43"/>
</linearGradient>
<linearGradient id="paint20_linear_86_9851" x1="438.201" y1="-472.67" x2="-978.192" y2="195.348" gradientUnits="userSpaceOnUse">
<stop stop-color="#F8A036"/>
<stop offset="1" stop-color="#FF5E43"/>
</linearGradient>
<linearGradient id="paint21_linear_86_9851" x1="-252.961" y1="-162.608" x2="-1669.35" y2="505.41" gradientUnits="userSpaceOnUse">
<stop stop-color="#F8A036"/>
<stop offset="1" stop-color="#FF5E43"/>
</linearGradient>
<linearGradient id="paint22_linear_86_9851" x1="1623.39" y1="-535.247" x2="570.84" y2="-38.8357" gradientUnits="userSpaceOnUse">
<stop stop-color="#F8A036"/>
<stop offset="1" stop-color="#FF5E43"/>
</linearGradient>
<linearGradient id="paint23_linear_86_9851" x1="940.249" y1="-701.879" x2="-476.144" y2="-33.8611" gradientUnits="userSpaceOnUse">
<stop stop-color="#F8A036"/>
<stop offset="1" stop-color="#FF5E43"/>
</linearGradient>
<linearGradient id="paint24_linear_86_9851" x1="249.087" y1="-391.811" x2="-1167.31" y2="276.208" gradientUnits="userSpaceOnUse">
<stop stop-color="#F8A036"/>
<stop offset="1" stop-color="#FF5E43"/>
</linearGradient>
<linearGradient id="paint25_linear_86_9851" x1="1143.99" y1="-626.114" x2="-272.405" y2="41.9038" gradientUnits="userSpaceOnUse">
<stop stop-color="#F8A036"/>
<stop offset="1" stop-color="#FF5E43"/>
</linearGradient>
<linearGradient id="paint26_linear_86_9851" x1="995.589" y1="-719.461" x2="-420.804" y2="-51.4433" gradientUnits="userSpaceOnUse">
<stop stop-color="#F8A036"/>
<stop offset="1" stop-color="#FF5E43"/>
</linearGradient>
<linearGradient id="paint27_linear_86_9851" x1="500.11" y1="-461.596" x2="-916.283" y2="206.422" gradientUnits="userSpaceOnUse">
<stop stop-color="#F8A036"/>
<stop offset="1" stop-color="#FF5E43"/>
</linearGradient>
<linearGradient id="paint28_linear_86_9851" x1="296.364" y1="-472.67" x2="-1120.03" y2="195.348" gradientUnits="userSpaceOnUse">
<stop stop-color="#F8A036"/>
<stop offset="1" stop-color="#FF5E43"/>
</linearGradient>
<linearGradient id="paint29_linear_86_9851" x1="201.808" y1="-420.109" x2="-1214.59" y2="247.909" gradientUnits="userSpaceOnUse">
<stop stop-color="#F8A036"/>
<stop offset="1" stop-color="#FF5E43"/>
</linearGradient>
<linearGradient id="paint30_linear_86_9851" x1="92.6216" y1="-420.109" x2="-1323.77" y2="247.909" gradientUnits="userSpaceOnUse">
<stop stop-color="#F8A036"/>
<stop offset="1" stop-color="#FF5E43"/>
</linearGradient>
<linearGradient id="paint31_linear_86_9851" x1="9.63346" y1="-269.074" x2="-1406.76" y2="398.944" gradientUnits="userSpaceOnUse">
<stop stop-color="#F8A036"/>
<stop offset="1" stop-color="#FF5E43"/>
</linearGradient>
<clipPath id="clip0_86_9851">
<rect width="1920" height="1080" fill="white"/>
</clipPath>
<clipPath id="clip1_86_9851">
<rect x="-10" y="-359" width="1940" height="1679" rx="80" fill="white"/>
</clipPath>
</defs>
</svg>
